<svg xmlns="http://www.w3.org/2000/svg" width="36" height="43" viewBox="0 0 36 43" fill="none">
<path d="M17.9993 0.333984C8.89935 0.333984 0.666016 7.31065 0.666016 18.1007C0.666016 24.9907 5.97435 33.094 16.5693 42.4323C17.3927 43.1473 18.6277 43.1473 19.451 42.4323C30.0243 33.094 35.3327 24.9907 35.3327 18.1007C35.3327 7.31065 27.0993 0.333984 17.9993 0.333984ZM17.9993 22.0007C15.616 22.0007 13.666 20.0507 13.666 17.6673C13.666 15.284 15.616 13.334 17.9993 13.334C20.3827 13.334 22.3327 15.284 22.3327 17.6673C22.3327 20.0507 20.3827 22.0007 17.9993 22.0007Z" fill="#FF2525"/>
</svg>